{
	"asset":{
		"generator":"Khronos glTF Blender I/O v4.0.44",
		"version":"2.0"
	},
	"extensionsUsed":[
		"KHR_materials_specular",
		"KHR_materials_ior"
	],
	"scene":0,
	"scenes":[
		{
			"name":"Scene",
			"nodes":[
				0
			]
		}
	],
	"nodes":[
		{
			"mesh":0,
			"name":"Zimmerpflanze",
			"rotation":[
				0.7071068286895752,
				0,
				0,
				0.7071068286895752
			]
		}
	],
	"materials":[
		{
			"doubleSided":true,
			"extensions":{
				"KHR_materials_specular":{
					"specularColorFactor":[
						2.0,
						2.0,
						2.0
					]
				},
				"KHR_materials_ior":{
					"ior":1.4500000476837158
				}
			},
			"name":"Texture",
			"pbrMetallicRoughness":{
				"baseColorTexture":{
					"index":0
				},
				"metallicFactor":0,
				"roughnessFactor":0.8999999761581421
			}
		}
	],
	"meshes":[
		{
			"name":"Zimmerpflanze",
			"primitives":[
				{
					"attributes":{
						"POSITION":0,
						"NORMAL":1,
						"TEXCOORD_0":2
					},
					"indices":3,
					"material":0
				}
			]
		}
	],
	"textures":[
		{
			"sampler":0,
			"source":0
		}
	],
	"images":[
		{
			"mimeType":"image/png",
			"name":"baked_mesh_tex0",
			"uri":"textures/baked_mesh_tex0.png"
		}
	],
	"accessors":[
		{
			"bufferView":0,
			"componentType":5126,
			"count":16026,
			"max":[
				0.18756376206874847,
				0.12106261402368546,
				1.492831458449473e-08
			],
			"min":[
				-0.19921323657035828,
				-0.1099386215209961,
				-0.4633679986000061
			],
			"type":"VEC3"
		},
		{
			"bufferView":1,
			"componentType":5126,
			"count":16026,
			"type":"VEC3"
		},
		{
			"bufferView":2,
			"componentType":5126,
			"count":16026,
			"type":"VEC2"
		},
		{
			"bufferView":3,
			"componentType":5123,
			"count":74940,
			"type":"SCALAR"
		}
	],
	"bufferViews":[
		{
			"buffer":0,
			"byteLength":192312,
			"byteOffset":0,
			"target":34962
		},
		{
			"buffer":0,
			"byteLength":192312,
			"byteOffset":192312,
			"target":34962
		},
		{
			"buffer":0,
			"byteLength":128208,
			"byteOffset":384624,
			"target":34962
		},
		{
			"buffer":0,
			"byteLength":149880,
			"byteOffset":512832,
			"target":34963
		}
	],
	"samplers":[
		{
			"magFilter":9729,
			"minFilter":9987
		}
	],
	"buffers":[
		{
			"byteLength":662712,
			"uri":"Zimmerpflanze.bin"
		}
	]
}
